<svg xmlns="http://www.w3.org/2000/svg" width="72.578" height="80.813" viewBox="0 0 72.578 80.813">
  <g id="database_outline" data-name="database outline" transform="translate(-3 -3)">
    <g id="Layer_1" data-name="Layer 1" transform="translate(5 5)">
      <path id="Path_84" data-name="Path 84" d="M73.577,14.427V71.919c0,5.464-15.353,9.894-34.291,9.894S5,77.383,5,71.919V14.427C5,8.968,20.349,5,39.286,5S73.577,8.968,73.577,14.427Z" transform="translate(-5 -5)" fill="none" stroke="#ecf0f1" stroke-miterlimit="10" stroke-width="4"/>
      <path id="Path_85" data-name="Path 85" d="M73.577,69.71a114.733,114.733,0,0,1-34.291,4.868A114.7,114.7,0,0,1,5,69.71" transform="translate(-5 -39.821)" fill="none" stroke="#ecf0f1" stroke-linecap="round" stroke-miterlimit="10" stroke-width="4"/>
      <path id="Path_86" data-name="Path 86" d="M73.577,112.83A114.733,114.733,0,0,1,39.286,117.7,114.7,114.7,0,0,1,5,112.83" transform="translate(-5 -63.024)" fill="none" stroke="#ecf0f1" stroke-linecap="round" stroke-miterlimit="10" stroke-width="4"/>
      <path id="Path_87" data-name="Path 87" d="M73.777,27.58a114.733,114.733,0,0,1-34.291,4.868A114.7,114.7,0,0,1,5.2,27.58" transform="translate(-5.108 -17.15)" fill="none" stroke="#ecf0f1" stroke-linejoin="round" stroke-width="4"/>
    </g>
  </g>
</svg>
