<svg xmlns="http://www.w3.org/2000/svg" width="36.55" height="36.55" viewBox="0 0 36.55 36.55">
  <g id="social-facebook-circular-button" transform="translate(0 0)">
    <path id="Path_45" data-name="Path 45" d="M18.275,0A18.275,18.275,0,1,0,36.55,18.275,18.275,18.275,0,0,0,18.275,0Zm0,33.695a15.42,15.42,0,1,1,15.42-15.42A15.419,15.419,0,0,1,18.275,33.695Z" transform="translate(0)" fill="#25c0ea"/>
    <path id="Path_46" data-name="Path 46" d="M203.924,134.34h-3.179v-2.32c0-.712.736-.877,1.08-.877h2.054v-3.131L201.524,128a3.606,3.606,0,0,0-3.944,3.831v2.509h-2.33v3.226h2.33v8.709h3.164v-8.709h2.688Z" transform="translate(-181.312 -118.862)" fill="#25c0ea"/>
  </g>
</svg>
