<svg xmlns="http://www.w3.org/2000/svg" width="36.551" height="36.55" viewBox="0 0 36.551 36.55">
  <g id="Group_128" data-name="Group 128" transform="translate(0 0)">
    <path id="Path_45" data-name="Path 45" d="M18.275,0A18.275,18.275,0,1,0,36.55,18.275,18.275,18.275,0,0,0,18.275,0Zm0,33.695a15.42,15.42,0,1,1,15.42-15.42A15.419,15.419,0,0,1,18.275,33.695Z" transform="translate(0.001)" fill="#25c0ea"/>
    <g id="icon" transform="translate(10.306 10.305)">
      <path id="Path_49" data-name="Path 49" d="M19.615,5.46A.616.616,0,0,1,19,4.845V3.615A.616.616,0,0,1,19.615,3h1.23a.616.616,0,0,1,.615.615v1.23a.616.616,0,0,1-.615.615Z" transform="translate(-7.314 -1.155)" fill="#25c0ea"/>
      <path id="Path_50" data-name="Path 50" d="M11.533,9.188a2.329,2.329,0,0,0-1.213.346,1.161,1.161,0,0,1,.347-.057,1.189,1.189,0,1,1-1.189,1.19,1.175,1.175,0,0,1,.058-.348,2.319,2.319,0,0,0-.347,1.213,2.345,2.345,0,1,0,2.345-2.345Z" transform="translate(-3.537 -3.537)" fill="#25c0ea"/>
      <g id="Group_65" data-name="Group 65" transform="translate(3.075 3.075)">
        <path id="Path_51" data-name="Path 51" d="M9.92,6.23A3.69,3.69,0,1,1,6.23,9.92,3.69,3.69,0,0,1,9.92,6.23M9.92,5a4.92,4.92,0,1,0,4.92,4.92A4.926,4.926,0,0,0,9.92,5Z" transform="translate(-5 -5)" fill="#25c0ea"/>
      </g>
      <path id="Path_52" data-name="Path 52" d="M12.993,0H3A3,3,0,0,0,0,3v9.995a3,3,0,0,0,3,3h9.995a3,3,0,0,0,3-3V3A3,3,0,0,0,12.993,0Zm1.768,5.535H10.741a3.69,3.69,0,1,1-5.49,0H1.23V3A1.77,1.77,0,0,1,3,1.23h9.995A1.77,1.77,0,0,1,14.761,3Z" fill="#25c0ea"/>
    </g>
    <path id="Path_103" data-name="Path 103" d="M18.275,0A18.275,18.275,0,1,0,36.55,18.275,18.275,18.275,0,0,0,18.275,0Zm0,33.695a15.42,15.42,0,1,1,15.42-15.42A15.419,15.419,0,0,1,18.275,33.695Z" transform="translate(0)" fill="#25c0ea"/>
  </g>
</svg>
