<svg xmlns="http://www.w3.org/2000/svg" width="36.55" height="36.55" viewBox="0 0 36.55 36.55">
  <g id="social-twitter-circular-button" transform="translate(0 0)">
    <path id="Path_47" data-name="Path 47" d="M18.275,0A18.275,18.275,0,1,0,36.55,18.275,18.275,18.275,0,0,0,18.275,0Zm0,33.695a15.42,15.42,0,1,1,15.42-15.42A15.419,15.419,0,0,1,18.275,33.695Z" transform="translate(0)" fill="#25c0ea"/>
    <path id="Path_48" data-name="Path 48" d="M146.274,145.922a6.266,6.266,0,0,1-2.093.639,4.285,4.285,0,0,0,1.572-2.205,5.836,5.836,0,0,1-2.352.9,0,0,0,0,0,0,0A3.638,3.638,0,0,0,140.676,144a3.924,3.924,0,0,0-3.77,4.06,4.3,4.3,0,0,0,.1.9h0a10.6,10.6,0,0,1-7.986-4.212,4.252,4.252,0,0,0,1.143,5.364,2.3,2.3,0,0,1-1.646-.457,3.882,3.882,0,0,0,2.908,3.966,2.753,2.753,0,0,1-1.569.127,3.629,3.629,0,0,0,3.37,2.757A5.912,5.912,0,0,1,128,158.195a10.723,10.723,0,0,0,5.9,1.8c6.083,0,10.806-5.308,10.552-11.857,0-.008,0-.016,0-.022s0-.036,0-.051,0-.04,0-.061A6.79,6.79,0,0,0,146.274,145.922Z" transform="translate(-118.862 -133.72)" fill="#25c0ea"/>
  </g>
</svg>
