<svg xmlns="http://www.w3.org/2000/svg" xmlns:xlink="http://www.w3.org/1999/xlink" width="1192.136" height="363.17" viewBox="0 0 1192.136 363.17">
  <defs>
    <linearGradient id="linear-gradient" x1="0.5" y1="1" x2="0.5" gradientUnits="objectBoundingBox">
      <stop offset="0" stop-color="#002c3e"/>
      <stop offset="1" stop-color="#002c3e" stop-opacity="0.765"/>
    </linearGradient>
    <filter id="Subtraction_19" x="0" y="0" width="1192.136" height="363.17" filterUnits="userSpaceOnUse">
      <feOffset dy="3" input="SourceAlpha"/>
      <feGaussianBlur stdDeviation="3" result="blur"/>
      <feFlood flood-opacity="0.161"/>
      <feComposite operator="in" in2="blur"/>
      <feComposite in="SourceGraphic"/>
    </filter>
  </defs>
  <g transform="matrix(1, 0, 0, 1, 0, 0)" filter="url(#Subtraction_19)">
    <path id="Subtraction_19-2" data-name="Subtraction 19" d="M972.034,345.17c-11.818,0-23.441-.3-34.547-.9-10.6-.574-21.062-1.434-31.107-2.556a473.044,473.044,0,0,1-53.823-9.108c-14.7-3.376-29.7-7.576-45.852-12.842-14.4-4.7-28.29-9.76-41.725-14.658l-.014-.005c-12.737-4.644-25.908-9.446-39.416-13.893-15.1-4.971-29.01-8.949-42.51-12.162a442.469,442.469,0,0,0-48.928-8.784c-9.063-1.114-18.453-1.992-27.909-2.61-9.935-.65-20.284-1.036-30.759-1.148-2.305-.025-4.659-.038-7-.038-40.5,0-81.841,3.777-126.384,11.546-18.156,3.167-37.143,7.038-58.045,11.835-19.7,4.522-39.042,9.4-55.359,13.567-5.088,1.3-10.124,2.6-15.708,4.031l-.063.016c-33.474,8.605-65.091,16.733-96.556,22.83-16.876,3.271-32.215,5.666-46.891,7.322a411.532,411.532,0,0,1-46.54,2.747,336.978,336.978,0,0,1-39.206-2.244,308.488,308.488,0,0,1-39.538-7.28,211.173,211.173,0,0,1-21.71-6.725,180.649,180.649,0,0,1-19.12-8.372c-1.1-.561-2.217-1.148-3.325-1.746V27.814c5.468-4.14,10.9-7.872,16.152-11.091A130.626,130.626,0,0,1,41.091,4.6,76.475,76.475,0,0,1,66.158,0,57.122,57.122,0,0,1,79.033,1.442,54.7,54.7,0,0,1,91.526,6.011a62.146,62.146,0,0,1,11.969,8.06,81.88,81.88,0,0,1,11.3,11.911,418.913,418.913,0,0,0,31.311,32.932,329.464,329.464,0,0,0,32.485,26.871,291.685,291.685,0,0,0,34.326,21.325A296.316,296.316,0,0,0,249.758,123.4c24.963,9.088,52.405,15.483,83.9,19.551,29.184,3.769,62.544,5.6,101.988,5.6h1.753c.68,0,1.39,0,2.171,0,19.969,0,40.327-.818,62.236-2.5,19.525-1.5,39.862-3.661,62.172-6.605,41.46-5.472,83.732-12.916,124.612-20.115l.018,0,2.395-.422H691c39.178-6.9,83.584-14.718,127.046-20.381,22.965-2.992,43.993-5.189,64.287-6.717,22.779-1.715,44.026-2.549,64.958-2.549,17.082,0,34,.583,50.28,1.734,17.181,1.215,34.273,3.106,50.8,5.62,17.32,2.635,34.6,6.043,51.374,10.129,17.472,4.257,34.97,9.392,52.006,15.262,7.731,2.664,15.261,5.3,22.382,7.829V324.117c-12.794,2.27-26.359,4.529-40.32,6.715-31.469,4.928-61.339,8.626-88.78,10.991C1019.271,344.044,994.71,345.17,972.034,345.17Z" transform="translate(9 6)" fill="url(#linear-gradient)"/>
  </g>
</svg>
