<svg xmlns="http://www.w3.org/2000/svg" xmlns:xlink="http://www.w3.org/1999/xlink" width="1223.254" height="274.931" viewBox="0 0 1223.254 274.931">
  <defs>
    <linearGradient id="linear-gradient" x1="0.5" y1="1" x2="0.5" gradientUnits="objectBoundingBox">
      <stop offset="0" stop-color="#002c3e"/>
      <stop offset="1" stop-color="#002c3e"/>
    </linearGradient>
    <filter id="Subtraction_21" x="0" y="0" width="1223.254" height="274.931" filterUnits="userSpaceOnUse">
      <feOffset dy="3" input="SourceAlpha"/>
      <feGaussianBlur stdDeviation="3" result="blur"/>
      <feFlood flood-opacity="0.161"/>
      <feComposite operator="in" in2="blur"/>
      <feComposite in="SourceGraphic"/>
    </filter>
  </defs>
  <g transform="matrix(1, 0, 0, 1, 0, 0)" filter="url(#Subtraction_21)">
    <path id="Subtraction_21-2" data-name="Subtraction 21" d="M874.429,256.93c-46.644,0-89.73-4.959-131.719-15.161-36.472-8.861-66.816-20.368-93.587-30.521l-.008,0,0,0-.006,0c-31.171-11.82-58.09-22.029-85.907-24.981a235.727,235.727,0,0,0-33.108-2.44,197.881,197.881,0,0,0-31.118,2.406,206.285,206.285,0,0,0-27.553,6.338c-17.453,5.246-33.54,12.339-49.1,19.2l-.02.009c-12.373,5.454-25.167,11.093-38.507,15.737-7.18,2.5-13.95,4.521-20.7,6.182a192.758,192.758,0,0,1-22.441,4.166,137.874,137.874,0,0,1-16.953.967c-12.661,0-27.6-1.391-44.4-4.136-15.27-2.494-32.423-6.163-50.981-10.9-31.248-7.981-67.011-19.111-106.3-33.082-19.286-6.859-49.929-18.166-86.384-33.082C14.023,148.772.119,142.635,0,142.582a.2.2,0,0,1,.029-.023l.026-.019c1.614-1.214,10.363-7.755,24.093-17.356C38,115.5,59.876,100.651,85.47,84.88c28.775-17.732,56.3-33,81.811-45.377,15.138-7.346,29.731-13.744,43.374-19.017a355.512,355.512,0,0,1,42.24-13.6,238.194,238.194,0,0,1,28.374-5.244A223.994,223.994,0,0,1,308.234,0h.028a224.015,224.015,0,0,1,23.213,1.217c7.331.767,14.814,1.917,22.239,3.418a280.1,280.1,0,0,1,41.755,12.031c26.724,9.86,51.065,22.626,74.6,34.972l.053.027c15.85,8.312,30.821,16.163,45.547,22.6,7.893,3.451,15.04,6.2,21.848,8.4a144.419,144.419,0,0,0,21.448,5.3c6.636,1.076,18.864,4.581,34.346,9.017l.008,0h0c21.25,6.091,50.349,14.431,81.224,21.089,16.812,3.626,32.75,6.445,47.372,8.376a363.623,363.623,0,0,0,47.142,3.383c4.3,0,8.544-.1,12.611-.307a373.1,373.1,0,0,0,44.525-4.9,374.543,374.543,0,0,0,38.979-8.906c24.447-6.936,46.047-15.5,66.935-23.785l.01,0,.029-.012.006,0c19.464-7.718,37.849-15.008,57.132-20.447a245.372,245.372,0,0,1,29.682-6.527,208.715,208.715,0,0,1,31.916-2.444c3.952,0,7.98.114,11.974.337,6.907.382,13.563,1.021,19.784,1.9,5.947.84,11.7,1.929,17.107,3.236a139.383,139.383,0,0,1,27.818,9.8c16.253,7.79,28.519,17.692,41.5,28.176l.007.005c10.838,8.748,22.045,17.794,36.169,26.018V197.74c-13.172.659-26.651,1.35-40.062,2.055-16.473.865-31.079,2.22-44.653,4.142a316.664,316.664,0,0,0-33.62,6.508c-8.777,2.224-17.382,4.874-26.307,8.1-7.964,2.881-15.443,5.946-22.675,8.91l-.039.016,0,0c-15.163,6.213-30.84,12.637-51.984,17.852a343.828,343.828,0,0,1-36.684,6.837c-14.926,2.012-31.085,3.414-49.4,4.286C891.291,256.769,882.747,256.93,874.429,256.93Z" transform="translate(9 6)" opacity="0.78" fill="url(#linear-gradient)"/>
  </g>
</svg>
