<svg xmlns="http://www.w3.org/2000/svg" width="36.551" height="36.55" viewBox="0 0 36.551 36.55">
  <g id="Group_177" data-name="Group 177" transform="translate(0 0)">
    <path id="Path_45" data-name="Path 45" d="M18.275,0A18.275,18.275,0,1,0,36.55,18.275,18.275,18.275,0,0,0,18.275,0Zm0,33.695a15.42,15.42,0,1,1,15.42-15.42A15.419,15.419,0,0,1,18.275,33.695Z" transform="translate(0.001)" fill="#25c0ea"/>
    <path id="Path_103" data-name="Path 103" d="M18.275,0A18.275,18.275,0,1,0,36.55,18.275,18.275,18.275,0,0,0,18.275,0Zm0,33.695a15.42,15.42,0,1,1,15.42-15.42A15.419,15.419,0,0,1,18.275,33.695Z" fill="#25c0ea"/>
    <g id="Group_175" data-name="Group 175" transform="translate(10.465 10.442)">
      <path id="Union_9" data-name="Union 9" d="M12.049,15.345A.248.248,0,0,1,11.8,15.1V10.274c0-1.35-.1-2.382-1.355-2.382-1.152,0-1.6.644-1.6,2.3V15.1a.249.249,0,0,1-.248.248H5.515a.249.249,0,0,1-.248-.248V5.179a.249.249,0,0,1,.248-.248H8.472a.249.249,0,0,1,.248.248v.644a3.626,3.626,0,0,1,2.713-1.139c3.477,0,3.946,2.514,3.946,4.973V15.1a.248.248,0,0,1-.248.248Zm-11.8-1.8V6.7a1.786,1.786,0,1,1,3.571,0v6.846a1.786,1.786,0,0,1-3.571,0ZM0,2.034A2.034,2.034,0,1,1,2.034,4.068,2.034,2.034,0,0,1,0,2.034Z" fill="#25c0ea"/>
    </g>
  </g>
</svg>
