<svg xmlns="http://www.w3.org/2000/svg" xmlns:xlink="http://www.w3.org/1999/xlink" width="1188.46" height="256.501" viewBox="0 0 1188.46 256.501">
  <defs>
    <linearGradient id="linear-gradient" x1="0.5" x2="0.5" y2="1" gradientUnits="objectBoundingBox">
      <stop offset="0" stop-color="#002c3e"/>
      <stop offset="1" stop-color="#002c3e"/>
    </linearGradient>
    <filter id="Waves" x="0" y="0" width="1188.46" height="256.501" filterUnits="userSpaceOnUse">
      <feOffset dy="3" input="SourceAlpha"/>
      <feGaussianBlur stdDeviation="3" result="blur"/>
      <feFlood flood-opacity="0.161"/>
      <feComposite operator="in" in2="blur"/>
      <feComposite in="SourceGraphic"/>
    </filter>
  </defs>
  <g transform="matrix(1, 0, 0, 1, 0, 0)" filter="url(#Waves)">
    <path id="Waves-2" data-name="Waves" d="M322.876,208.5h0c-10.743,0-21.821-.217-32.925-.643-17.806-.872-33.43-2.006-47.765-3.465-12.752-1.3-24.162-2.826-34.884-4.67-19.907-3.423-34.28-7.435-48.178-11.314l-.008,0-.005,0-.006,0a446.431,446.431,0,0,0-45.309-10.78c-9.877-1.753-20.3-3.213-31.88-4.462-12.963-1.4-27.03-2.5-43.006-3.363-12.849-.7-25.939-1.387-38.907-2.055V101.982c13.722-8.227,24.605-17.274,35.13-26.023,12.615-10.486,24.53-20.389,40.307-28.176a132.747,132.747,0,0,1,27.015-9.8c5.242-1.306,10.832-2.4,16.613-3.236,6.035-.879,12.5-1.518,19.212-1.9,3.887-.223,7.8-.336,11.629-.336a196.877,196.877,0,0,1,31,2.444,232.046,232.046,0,0,1,28.827,6.526c18.728,5.44,36.583,12.731,55.485,20.449l.03.012.024.01c20.282,8.282,41.251,16.845,64.985,23.779a354.581,354.581,0,0,0,37.853,8.905,352.2,352.2,0,0,0,43.241,4.9c3.943.2,8.063.306,12.246.306a342.874,342.874,0,0,0,45.778-3.383c14.2-1.931,29.674-4.749,46-8.375,29.975-6.656,58.236-15,78.871-21.086l.026-.008.015,0c15.029-4.435,26.9-7.937,33.339-9.013a136.714,136.714,0,0,0,20.829-5.3,224.593,224.593,0,0,0,21.218-8.4c14.305-6.44,28.856-14.3,44.26-22.614l.025-.014.014-.008c22.857-12.343,46.492-25.106,72.439-34.965a266.134,266.134,0,0,1,40.549-12.031c7.209-1.5,14.474-2.651,21.595-3.418a209.586,209.586,0,0,1,48.755.424,225.635,225.635,0,0,1,27.556,5.246,338.249,338.249,0,0,1,41.021,13.6C979.122-4.248,993.293,2.15,1008.01,9.5a905.866,905.866,0,0,1,79.449,45.376c24.859,15.774,46.1,30.624,59.55,40.3,14.428,10.387,23.09,17.117,23.451,17.4l-.018.007-.1.03-.014,0c-3.067.939-14.378,4.373-31.158,9.123-17.721,5.016-45.406,12.586-76.663,20.162-35.122,8.513-67.5,15.3-96.238,20.162-35.913,6.081-66.2,9.165-90.014,9.165a201.546,201.546,0,0,1-25.367-1.439c-18.529-2.383-35.453-5.24-51.82-8-33.67-5.685-65.471-11.054-104.328-11.054a486.607,486.607,0,0,0-71.221,5.521c-25.358,2.771-50.5,9.909-79.6,18.175l-.009,0-.01,0c-26.675,7.575-56.907,16.159-92.793,22.763A701.151,701.151,0,0,1,322.876,208.5Z" transform="translate(9 36)" fill="url(#linear-gradient)"/>
  </g>
</svg>
