<svg xmlns="http://www.w3.org/2000/svg" width="36.551" height="36.55" viewBox="0 0 36.551 36.55">
  <g id="Group_309" data-name="Group 309" transform="translate(-227.449 0)">
    <g id="Group_176" data-name="Group 176" transform="translate(227.449)">
      <path id="Path_45" data-name="Path 45" d="M18.275,0A18.275,18.275,0,1,0,36.55,18.275,18.275,18.275,0,0,0,18.275,0Zm0,33.695a15.42,15.42,0,1,1,15.42-15.42A15.419,15.419,0,0,1,18.275,33.695Z" transform="translate(0.001)" fill="#25c0ea"/>
      <path id="Path_103" data-name="Path 103" d="M18.275,0A18.275,18.275,0,1,0,36.55,18.275,18.275,18.275,0,0,0,18.275,0Zm0,33.695a15.42,15.42,0,1,1,15.42-15.42A15.419,15.419,0,0,1,18.275,33.695Z" fill="#25c0ea"/>
    </g>
    <path id="Union_8" data-name="Union 8" d="M10.336,17.613,6.426,10.666,12.542,0H16.62L10.562,10.666l3.9,6.947ZM0,12.321,3.1,7.258.82,3.229H4.672l2.275,4.03L3.912,12.321Z" transform="translate(237.165 9.057)" fill="#25c0ea"/>
  </g>
</svg>
